<svg width="1440" height="595" viewBox="0 0 1440 595" fill="none" fill-opacity='0.1' xmlns="http://www.w3.org/2000/svg">
<path d="M176.178 355.873C176.178 353.532 177.982 351.634 180.207 351.634C182.431 351.634 184.235 353.532 184.235 355.873C184.235 358.214 182.431 360.113 180.207 360.113C178.007 360.113 176.178 358.214 176.178 355.873Z" fill="url(#paint0_linear)"/>
<path d="M180.898 259.765H179.564V353.402H180.898V259.765Z" fill="url(#paint1_linear)"/>
<path d="M-6.55829 240.569C-6.55829 238.228 -4.75415 236.33 -2.52988 236.33C-0.305604 236.33 1.49852 238.228 1.49852 240.569C1.49852 242.91 -0.305604 244.809 -2.52988 244.809C-4.75415 244.809 -6.55829 242.91 -6.55829 240.569Z" fill="url(#paint2_linear)"/>
<path d="M43.5126 140.924C43.5126 138.583 45.3167 136.684 47.541 136.684C49.7653 136.684 51.5694 138.583 51.5694 140.924C51.5694 143.265 49.7653 145.163 47.541 145.163C45.3167 145.163 43.5126 143.265 43.5126 140.924Z" fill="url(#paint3_linear)"/>
<path d="M48.2329 44.8155H46.8984V138.453H48.2329V44.8155Z" fill="url(#paint4_linear)"/>
<path d="M83.7472 162.434C83.7472 160.093 85.5513 158.195 87.7756 158.195C89.9999 158.195 91.804 160.093 91.804 162.434C91.804 164.775 89.9999 166.674 87.7756 166.674C85.5761 166.7 83.7472 164.801 83.7472 162.434Z" fill="url(#paint5_linear)"/>
<path d="M88.4676 66.3521H87.133V160.015H88.4676V66.3521Z" fill="url(#paint6_linear)"/>
<path d="M149.388 404.227C149.388 401.886 151.192 399.987 153.416 399.987C155.641 399.987 157.445 401.886 157.445 404.227C157.445 406.568 155.641 408.466 153.416 408.466C151.192 408.466 149.388 406.568 149.388 404.227Z" fill="url(#paint7_linear)"/>
<path d="M154.108 308.118H152.774V401.756H154.108V308.118Z" fill="url(#paint8_linear)"/>
<path d="M211.742 131.508C211.742 129.167 213.546 127.268 215.77 127.268C217.994 127.268 219.799 129.167 219.799 131.508C219.799 133.849 217.994 135.748 215.77 135.748C213.546 135.748 211.742 133.849 211.742 131.508Z" fill="url(#paint9_linear)"/>
<path d="M216.438 35.4257H215.103V129.063H216.438V35.4257Z" fill="url(#paint10_linear)"/>
<path d="M100.553 127.346C100.553 125.005 102.357 123.107 104.581 123.107C106.806 123.107 108.61 125.005 108.61 127.346C108.61 129.687 106.806 131.586 104.581 131.586C102.357 131.586 100.553 129.687 100.553 127.346Z" fill="url(#paint11_linear)"/>
<path d="M105.273 78.0828H103.939V124.901H105.273V78.0828Z" fill="url(#paint12_linear)"/>
<path d="M252.495 362.74C252.495 360.399 254.3 358.5 256.524 358.5C258.748 358.5 260.552 360.399 260.552 362.74C260.552 365.081 258.748 366.98 256.524 366.98C254.324 366.98 252.495 365.081 252.495 362.74Z" fill="url(#paint13_linear)"/>
<path d="M257.216 313.45H255.881V360.269H257.216V313.45Z" fill="url(#paint14_linear)"/>
<path d="M20.7261 114.653C20.7261 112.312 22.5302 110.414 24.7545 110.414C26.9787 110.414 28.7829 112.312 28.7829 114.653C28.7829 116.994 26.9787 118.893 24.7545 118.893C22.5302 118.893 20.7261 116.994 20.7261 114.653Z" fill="url(#paint15_linear)"/>
<path d="M25.4465 65.3637H24.1119V112.182H25.4465V65.3637Z" fill="url(#paint16_linear)"/>
<path d="M150.97 49.7835C150.97 47.4426 152.774 45.5438 154.998 45.5438C157.222 45.5438 159.027 47.4426 159.027 49.7835C159.027 52.1244 157.222 54.0232 154.998 54.0232C152.799 54.0492 150.97 52.1244 150.97 49.7835Z" fill="url(#paint17_linear)"/>
<path d="M155.69 0.519897H154.356V47.3385H155.69V0.519897Z" fill="url(#paint18_linear)"/>
<path d="M94.918 392.418C94.918 390.077 96.7222 388.178 98.9464 388.178C101.171 388.178 102.975 390.077 102.975 392.418C102.975 394.759 101.171 396.657 98.9464 396.657C96.7222 396.657 94.918 394.759 94.918 392.418Z" fill="url(#paint19_linear)"/>
<path d="M99.6137 296.31H98.2791V389.973H99.6137V296.31Z" fill="url(#paint20_linear)"/>
<path d="M210.852 342.712C210.852 340.371 212.656 338.472 214.88 338.472C217.105 338.472 218.909 340.371 218.909 342.712C218.909 345.053 217.105 346.952 214.88 346.952C212.656 346.978 210.852 345.079 210.852 342.712Z" fill="url(#paint21_linear)"/>
<path d="M215.548 246.63H214.213V340.293H215.548V246.63Z" fill="url(#paint22_linear)"/>
<path d="M16.6977 578.652C16.6977 576.311 18.5018 574.412 20.7261 574.412C22.9504 574.412 24.7545 576.311 24.7545 578.652C24.7545 580.993 22.9504 582.891 20.7261 582.891C18.5018 582.917 16.6977 580.993 16.6977 578.652Z" fill="url(#paint23_linear)"/>
<path d="M21.3934 253.08H20.0588V576.207H21.3934V253.08Z" fill="url(#paint24_linear)"/>
<path d="M187.522 393.64C187.522 391.299 189.326 389.401 191.55 389.401C193.775 389.401 195.579 391.299 195.579 393.64C195.579 395.981 193.775 397.88 191.55 397.88C189.326 397.88 187.522 395.981 187.522 393.64Z" fill="url(#paint25_linear)"/>
<path d="M192.218 68.0688H190.883V391.195H192.218V68.0688Z" fill="url(#paint26_linear)"/>
<path d="M79.0021 488.344C79.0021 486.003 80.8062 484.104 83.0305 484.104C85.2548 484.104 87.0589 486.003 87.0589 488.344C87.0589 490.685 85.2548 492.584 83.0305 492.584C80.8062 492.61 79.0021 490.685 79.0021 488.344Z" fill="url(#paint27_linear)"/>
<path d="M83.7225 162.799H82.3879V485.925H83.7225V162.799Z" fill="url(#paint28_linear)"/>
<path d="M164.291 237.708C164.291 235.367 166.095 233.469 168.319 233.469C170.543 233.469 172.347 235.367 172.347 237.708C172.347 240.049 170.543 241.948 168.319 241.948C166.095 241.974 164.291 240.075 164.291 237.708Z" fill="url(#paint29_linear)"/>
<path d="M169.011 56.4941H167.676V235.263H169.011V56.4941Z" fill="url(#paint30_linear)"/>
<path d="M1307.77 400.69C1307.77 398.349 1309.58 396.45 1311.8 396.45C1314.03 396.45 1315.83 398.349 1315.83 400.69C1315.83 403.031 1314.03 404.929 1311.8 404.929C1309.58 404.955 1307.77 403.031 1307.77 400.69Z" fill="url(#paint31_linear)"/>
<path d="M1312.47 332.959H1311.14V398.271H1312.47V332.959Z" fill="url(#paint32_linear)"/>
<path d="M1203.85 305.856C1203.85 303.515 1205.66 301.616 1207.88 301.616C1210.1 301.616 1211.91 303.515 1211.91 305.856C1211.91 308.197 1210.1 310.095 1207.88 310.095C1205.66 310.095 1203.85 308.197 1203.85 305.856Z" fill="url(#paint33_linear)"/>
<path d="M1208.55 134.369H1207.21V303.411H1208.55V134.369Z" fill="url(#paint34_linear)"/>
<path d="M1157.91 159.704C1157.91 157.363 1159.71 155.464 1161.94 155.464C1164.16 155.464 1165.96 157.363 1165.96 159.704C1165.96 162.045 1164.16 163.943 1161.94 163.943C1159.74 163.969 1157.91 162.071 1157.91 159.704Z" fill="url(#paint35_linear)"/>
<path d="M1162.63 63.6213H1161.29V157.285H1162.63V63.6213Z" fill="url(#paint36_linear)"/>
<path d="M1282.64 233.521C1282.64 231.18 1284.44 229.281 1286.67 229.281C1288.89 229.281 1290.7 231.18 1290.7 233.521C1290.7 235.862 1288.89 237.761 1286.67 237.761C1284.44 237.787 1282.64 235.862 1282.64 233.521Z" fill="url(#paint37_linear)"/>
<path d="M1287.34 137.439H1286V231.102H1287.34V137.439Z" fill="url(#paint38_linear)"/>
<path d="M1410.17 240.908C1410.17 238.567 1411.97 236.668 1414.19 236.668C1416.42 236.668 1418.22 238.567 1418.22 240.908C1418.22 243.249 1416.42 245.148 1414.19 245.148C1411.97 245.148 1410.17 243.249 1410.17 240.908Z" fill="url(#paint39_linear)"/>
<path d="M1414.89 144.826H1413.55V238.489H1414.89V144.826Z" fill="url(#paint40_linear)"/>
<path d="M1270.8 311.812C1270.8 309.471 1272.61 307.572 1274.83 307.572C1277.06 307.572 1278.86 309.471 1278.86 311.812C1278.86 314.153 1277.06 316.052 1274.83 316.052C1272.61 316.078 1270.8 314.153 1270.8 311.812Z" fill="url(#paint41_linear)"/>
<path d="M1275.52 133.719H1274.19V309.367H1275.52V133.719Z" fill="url(#paint42_linear)"/>
<path d="M1294.26 279.611C1294.26 277.27 1296.06 275.372 1298.28 275.372C1300.51 275.372 1302.31 277.27 1302.31 279.611C1302.31 281.952 1300.51 283.851 1298.28 283.851C1296.06 283.851 1294.26 281.952 1294.26 279.611Z" fill="url(#paint43_linear)"/>
<path d="M1298.98 136.945H1297.64V277.166H1298.98V136.945Z" fill="url(#paint44_linear)"/>
<path d="M1236.77 465.871C1236.77 463.53 1238.58 461.632 1240.8 461.632C1243.02 461.632 1244.83 463.53 1244.83 465.871C1244.83 468.212 1243.02 470.111 1240.8 470.111C1238.6 470.111 1236.77 468.212 1236.77 465.871Z" fill="url(#paint45_linear)"/>
<path d="M1241.49 140.3H1240.16V463.426H1241.49V140.3Z" fill="url(#paint46_linear)"/>
<path d="M1354.29 325.572C1354.29 323.231 1356.09 321.332 1358.32 321.332C1360.54 321.332 1362.34 323.231 1362.34 325.572C1362.34 327.912 1360.54 329.811 1358.32 329.811C1356.09 329.811 1354.29 327.912 1354.29 325.572Z" fill="url(#paint47_linear)"/>
<path d="M1359.01 0H1357.67V323.127H1359.01V0Z" fill="url(#paint48_linear)"/>
<path d="M1415.45 343.649C1415.45 341.308 1417.26 339.409 1419.48 339.409C1421.71 339.409 1423.51 341.308 1423.51 343.649C1423.51 345.99 1421.71 347.888 1419.48 347.888C1417.26 347.888 1415.45 345.99 1415.45 343.649Z" fill="url(#paint49_linear)"/>
<path d="M1420.15 18.0772H1418.82V341.204H1420.15V18.0772Z" fill="url(#paint50_linear)"/>
<path d="M1168.61 537.01C1168.61 534.669 1170.41 532.77 1172.64 532.77C1174.86 532.77 1176.67 534.669 1176.67 537.01C1176.67 539.351 1174.86 541.249 1172.64 541.249C1170.44 541.249 1168.61 539.351 1168.61 537.01Z" fill="url(#paint51_linear)"/>
<path d="M1173.33 211.438H1172V534.565H1173.33V211.438Z" fill="url(#paint52_linear)"/>
<path d="M1426.43 409.013C1426.43 406.672 1428.23 404.773 1430.46 404.773C1432.68 404.773 1434.48 406.672 1434.48 409.013C1434.48 411.354 1432.68 413.252 1430.46 413.252C1428.23 413.252 1426.43 411.354 1426.43 409.013Z" fill="url(#paint53_linear)"/>
<path d="M1431.15 83.4413H1429.81V406.568H1431.15V83.4413Z" fill="url(#paint54_linear)"/>
<path d="M1115.89 450.655C1115.89 448.314 1117.7 446.416 1119.92 446.416C1122.15 446.416 1123.95 448.314 1123.95 450.655C1123.95 452.996 1122.15 454.895 1119.92 454.895C1117.7 454.921 1115.89 453.022 1115.89 450.655Z" fill="url(#paint55_linear)"/>
<path d="M1120.59 269.441H1119.26V448.21H1120.59V269.441Z" fill="url(#paint56_linear)"/>
<path d="M1185.34 255.838C1185.34 253.497 1187.14 251.598 1189.37 251.598C1191.59 251.598 1193.4 253.497 1193.4 255.838C1193.4 258.179 1191.59 260.078 1189.37 260.078C1187.14 260.104 1185.34 258.205 1185.34 255.838Z" fill="url(#paint57_linear)"/>
<path d="M1190.06 123.939H1188.73V253.419H1190.06V123.939Z" fill="url(#paint58_linear)"/>
<path d="M1404.98 484.339C1404.98 481.998 1406.78 480.099 1409 480.099C1411.23 480.099 1413.03 481.998 1413.03 484.339C1413.03 486.68 1411.23 488.579 1409 488.579C1406.78 488.579 1404.98 486.68 1404.98 484.339Z" fill="url(#paint59_linear)"/>
<path d="M1409.7 303.099H1408.36V481.868H1409.7V303.099Z" fill="url(#paint60_linear)"/>
<defs>
<linearGradient id="paint0_linear" x1="180.224" y1="332.002" x2="180.224" y2="258.31" gradientUnits="userSpaceOnUse">
<stop stop-color="#A4FFFF"/>
<stop offset="1" stop-color="#A4FFFF" stop-opacity="0"/>
</linearGradient>
<linearGradient id="paint1_linear" x1="180.227" y1="332.001" x2="180.227" y2="258.311" gradientUnits="userSpaceOnUse">
<stop stop-color="#A4FFFF"/>
<stop offset="1" stop-color="#A4FFFF" stop-opacity="0"/>
</linearGradient>
<linearGradient id="paint2_linear" x1="-2.53013" y1="216.696" x2="-2.53013" y2="142.982" gradientUnits="userSpaceOnUse">
<stop stop-color="#A4FFFF"/>
<stop offset="1" stop-color="#A4FFFF" stop-opacity="0"/>
</linearGradient>
<linearGradient id="paint3_linear" x1="47.557" y1="117.06" x2="47.557" y2="43.3676" gradientUnits="userSpaceOnUse">
<stop stop-color="#A4FFFF"/>
<stop offset="1" stop-color="#A4FFFF" stop-opacity="0"/>
</linearGradient>
<linearGradient id="paint4_linear" x1="47.5568" y1="117.058" x2="47.5568" y2="43.3686" gradientUnits="userSpaceOnUse">
<stop stop-color="#A4FFFF"/>
<stop offset="1" stop-color="#A4FFFF" stop-opacity="0"/>
</linearGradient>
<linearGradient id="paint5_linear" x1="87.7946" y1="138.582" x2="87.7946" y2="64.8872" gradientUnits="userSpaceOnUse">
<stop stop-color="#A4FFFF"/>
<stop offset="1" stop-color="#A4FFFF" stop-opacity="0"/>
</linearGradient>
<linearGradient id="paint6_linear" x1="87.7946" y1="138.582" x2="87.7946" y2="64.8906" gradientUnits="userSpaceOnUse">
<stop stop-color="#A4FFFF"/>
<stop offset="1" stop-color="#A4FFFF" stop-opacity="0"/>
</linearGradient>
<linearGradient id="paint7_linear" x1="153.431" y1="380.366" x2="153.431" y2="306.693" gradientUnits="userSpaceOnUse">
<stop stop-color="#A4FFFF"/>
<stop offset="1" stop-color="#A4FFFF" stop-opacity="0"/>
</linearGradient>
<linearGradient id="paint8_linear" x1="153.432" y1="380.359" x2="153.432" y2="306.669" gradientUnits="userSpaceOnUse">
<stop stop-color="#A4FFFF"/>
<stop offset="1" stop-color="#A4FFFF" stop-opacity="0"/>
</linearGradient>
<linearGradient id="paint9_linear" x1="215.771" y1="107.647" x2="215.771" y2="33.9546" gradientUnits="userSpaceOnUse">
<stop stop-color="#A4FFFF"/>
<stop offset="1" stop-color="#A4FFFF" stop-opacity="0"/>
</linearGradient>
<linearGradient id="paint10_linear" x1="215.77" y1="107.645" x2="215.77" y2="33.9551" gradientUnits="userSpaceOnUse">
<stop stop-color="#A4FFFF"/>
<stop offset="1" stop-color="#A4FFFF" stop-opacity="0"/>
</linearGradient>
<linearGradient id="paint11_linear" x1="104.593" y1="103.489" x2="104.593" y2="29.7966" gradientUnits="userSpaceOnUse">
<stop stop-color="#A4FFFF"/>
<stop offset="1" stop-color="#A4FFFF" stop-opacity="0"/>
</linearGradient>
<linearGradient id="paint12_linear" x1="104.594" y1="114.198" x2="104.594" y2="77.3527" gradientUnits="userSpaceOnUse">
<stop stop-color="#A4FFFF"/>
<stop offset="1" stop-color="#A4FFFF" stop-opacity="0"/>
</linearGradient>
<linearGradient id="paint13_linear" x1="256.542" y1="338.868" x2="256.542" y2="265.176" gradientUnits="userSpaceOnUse">
<stop stop-color="#A4FFFF"/>
<stop offset="1" stop-color="#A4FFFF" stop-opacity="0"/>
</linearGradient>
<linearGradient id="paint14_linear" x1="256.542" y1="349.578" x2="256.542" y2="312.732" gradientUnits="userSpaceOnUse">
<stop stop-color="#A4FFFF"/>
<stop offset="1" stop-color="#A4FFFF" stop-opacity="0"/>
</linearGradient>
<linearGradient id="paint15_linear" x1="24.771" y1="90.7745" x2="24.771" y2="17.0597" gradientUnits="userSpaceOnUse">
<stop stop-color="#A4FFFF"/>
<stop offset="1" stop-color="#A4FFFF" stop-opacity="0"/>
</linearGradient>
<linearGradient id="paint16_linear" x1="24.7711" y1="101.493" x2="24.7711" y2="64.6471" gradientUnits="userSpaceOnUse">
<stop stop-color="#A4FFFF"/>
<stop offset="1" stop-color="#A4FFFF" stop-opacity="0"/>
</linearGradient>
<linearGradient id="paint17_linear" x1="155.018" y1="25.9273" x2="155.018" y2="-47.765" gradientUnits="userSpaceOnUse">
<stop stop-color="#A4FFFF"/>
<stop offset="1" stop-color="#A4FFFF" stop-opacity="0"/>
</linearGradient>
<linearGradient id="paint18_linear" x1="155.02" y1="36.6361" x2="155.02" y2="-0.206052" gradientUnits="userSpaceOnUse">
<stop stop-color="#A4FFFF"/>
<stop offset="1" stop-color="#A4FFFF" stop-opacity="0"/>
</linearGradient>
<linearGradient id="paint19_linear" x1="98.9571" y1="368.554" x2="98.9571" y2="294.862" gradientUnits="userSpaceOnUse">
<stop stop-color="#A4FFFF"/>
<stop offset="1" stop-color="#A4FFFF" stop-opacity="0"/>
</linearGradient>
<linearGradient id="paint20_linear" x1="98.9558" y1="368.554" x2="98.9558" y2="294.863" gradientUnits="userSpaceOnUse">
<stop stop-color="#A4FFFF"/>
<stop offset="1" stop-color="#A4FFFF" stop-opacity="0"/>
</linearGradient>
<linearGradient id="paint21_linear" x1="214.887" y1="318.854" x2="214.887" y2="245.139" gradientUnits="userSpaceOnUse">
<stop stop-color="#A4FFFF"/>
<stop offset="1" stop-color="#A4FFFF" stop-opacity="0"/>
</linearGradient>
<linearGradient id="paint22_linear" x1="214.888" y1="318.861" x2="214.888" y2="245.17" gradientUnits="userSpaceOnUse">
<stop stop-color="#A4FFFF"/>
<stop offset="1" stop-color="#A4FFFF" stop-opacity="0"/>
</linearGradient>
<linearGradient id="paint23_linear" x1="20.7345" y1="537.095" x2="20.7345" y2="405.857" gradientUnits="userSpaceOnUse">
<stop stop-color="#A4FFFF"/>
<stop offset="1" stop-color="#A4FFFF" stop-opacity="0"/>
</linearGradient>
<linearGradient id="paint24_linear" x1="20.7358" y1="504.257" x2="20.7358" y2="262.838" gradientUnits="userSpaceOnUse">
<stop stop-color="#A4FFFF"/>
<stop offset="1" stop-color="#A4FFFF" stop-opacity="0"/>
</linearGradient>
<linearGradient id="paint25_linear" x1="191.548" y1="352.079" x2="191.548" y2="220.841" gradientUnits="userSpaceOnUse">
<stop stop-color="#A4FFFF"/>
<stop offset="1" stop-color="#A4FFFF" stop-opacity="0"/>
</linearGradient>
<linearGradient id="paint26_linear" x1="191.55" y1="319.24" x2="191.55" y2="77.8213" gradientUnits="userSpaceOnUse">
<stop stop-color="#A4FFFF"/>
<stop offset="1" stop-color="#A4FFFF" stop-opacity="0"/>
</linearGradient>
<linearGradient id="paint27_linear" x1="83.0448" y1="446.789" x2="83.0448" y2="315.55" gradientUnits="userSpaceOnUse">
<stop stop-color="#A4FFFF"/>
<stop offset="1" stop-color="#A4FFFF" stop-opacity="0"/>
</linearGradient>
<linearGradient id="paint28_linear" x1="83.0461" y1="413.947" x2="83.0461" y2="172.53" gradientUnits="userSpaceOnUse">
<stop stop-color="#A4FFFF"/>
<stop offset="1" stop-color="#A4FFFF" stop-opacity="0"/>
</linearGradient>
<linearGradient id="paint29_linear" x1="168.33" y1="196.144" x2="168.33" y2="64.8641" gradientUnits="userSpaceOnUse">
<stop stop-color="#A4FFFF"/>
<stop offset="1" stop-color="#A4FFFF" stop-opacity="0"/>
</linearGradient>
<linearGradient id="paint30_linear" x1="168.33" y1="195.464" x2="168.33" y2="61.8929" gradientUnits="userSpaceOnUse">
<stop stop-color="#A4FFFF"/>
<stop offset="1" stop-color="#A4FFFF" stop-opacity="0"/>
</linearGradient>
<linearGradient id="paint31_linear" x1="1311.8" y1="376.846" x2="1311.8" y2="303.177" gradientUnits="userSpaceOnUse">
<stop stop-color="#A4FFFF"/>
<stop offset="1" stop-color="#A4FFFF" stop-opacity="0"/>
</linearGradient>
<linearGradient id="paint32_linear" x1="1311.8" y1="383.32" x2="1311.8" y2="331.929" gradientUnits="userSpaceOnUse">
<stop stop-color="#A4FFFF"/>
<stop offset="1" stop-color="#A4FFFF" stop-opacity="0"/>
</linearGradient>
<linearGradient id="paint33_linear" x1="1207.88" y1="281.996" x2="1207.88" y2="208.303" gradientUnits="userSpaceOnUse">
<stop stop-color="#A4FFFF"/>
<stop offset="1" stop-color="#A4FFFF" stop-opacity="0"/>
</linearGradient>
<linearGradient id="paint34_linear" x1="1207.88" y1="264.755" x2="1207.88" y2="131.744" gradientUnits="userSpaceOnUse">
<stop stop-color="#A4FFFF"/>
<stop offset="1" stop-color="#A4FFFF" stop-opacity="0"/>
</linearGradient>
<linearGradient id="paint35_linear" x1="1161.96" y1="135.853" x2="1161.96" y2="62.1604" gradientUnits="userSpaceOnUse">
<stop stop-color="#A4FFFF"/>
<stop offset="1" stop-color="#A4FFFF" stop-opacity="0"/>
</linearGradient>
<linearGradient id="paint36_linear" x1="1161.96" y1="135.853" x2="1161.96" y2="62.1613" gradientUnits="userSpaceOnUse">
<stop stop-color="#A4FFFF"/>
<stop offset="1" stop-color="#A4FFFF" stop-opacity="0"/>
</linearGradient>
<linearGradient id="paint37_linear" x1="1286.67" y1="209.655" x2="1286.67" y2="135.94" gradientUnits="userSpaceOnUse">
<stop stop-color="#A4FFFF"/>
<stop offset="1" stop-color="#A4FFFF" stop-opacity="0"/>
</linearGradient>
<linearGradient id="paint38_linear" x1="1286.67" y1="209.661" x2="1286.67" y2="135.97" gradientUnits="userSpaceOnUse">
<stop stop-color="#A4FFFF"/>
<stop offset="1" stop-color="#A4FFFF" stop-opacity="0"/>
</linearGradient>
<linearGradient id="paint39_linear" x1="1414.21" y1="217.05" x2="1414.21" y2="143.358" gradientUnits="userSpaceOnUse">
<stop stop-color="#A4FFFF"/>
<stop offset="1" stop-color="#A4FFFF" stop-opacity="0"/>
</linearGradient>
<linearGradient id="paint40_linear" x1="1414.21" y1="217.05" x2="1414.21" y2="143.359" gradientUnits="userSpaceOnUse">
<stop stop-color="#A4FFFF"/>
<stop offset="1" stop-color="#A4FFFF" stop-opacity="0"/>
</linearGradient>
<linearGradient id="paint41_linear" x1="1274.85" y1="270.256" x2="1274.85" y2="139.016" gradientUnits="userSpaceOnUse">
<stop stop-color="#A4FFFF"/>
<stop offset="1" stop-color="#A4FFFF" stop-opacity="0"/>
</linearGradient>
<linearGradient id="paint42_linear" x1="1274.85" y1="270.258" x2="1274.85" y2="139.02" gradientUnits="userSpaceOnUse">
<stop stop-color="#A4FFFF"/>
<stop offset="1" stop-color="#A4FFFF" stop-opacity="0"/>
</linearGradient>
<linearGradient id="paint43_linear" x1="1298.3" y1="238.043" x2="1298.3" y2="106.804" gradientUnits="userSpaceOnUse">
<stop stop-color="#A4FFFF"/>
<stop offset="1" stop-color="#A4FFFF" stop-opacity="0"/>
</linearGradient>
<linearGradient id="paint44_linear" x1="1298.3" y1="245.931" x2="1298.3" y2="141.162" gradientUnits="userSpaceOnUse">
<stop stop-color="#A4FFFF"/>
<stop offset="1" stop-color="#A4FFFF" stop-opacity="0"/>
</linearGradient>
<linearGradient id="paint45_linear" x1="1240.82" y1="424.311" x2="1240.82" y2="293.072" gradientUnits="userSpaceOnUse">
<stop stop-color="#A4FFFF"/>
<stop offset="1" stop-color="#A4FFFF" stop-opacity="0"/>
</linearGradient>
<linearGradient id="paint46_linear" x1="1240.82" y1="391.47" x2="1240.82" y2="150.051" gradientUnits="userSpaceOnUse">
<stop stop-color="#A4FFFF"/>
<stop offset="1" stop-color="#A4FFFF" stop-opacity="0"/>
</linearGradient>
<linearGradient id="paint47_linear" x1="1358.33" y1="283.994" x2="1358.33" y2="152.714" gradientUnits="userSpaceOnUse">
<stop stop-color="#A4FFFF"/>
<stop offset="1" stop-color="#A4FFFF" stop-opacity="0"/>
</linearGradient>
<linearGradient id="paint48_linear" x1="1358.33" y1="251.163" x2="1358.33" y2="9.74478" gradientUnits="userSpaceOnUse">
<stop stop-color="#A4FFFF"/>
<stop offset="1" stop-color="#A4FFFF" stop-opacity="0"/>
</linearGradient>
<linearGradient id="paint49_linear" x1="1419.49" y1="302.076" x2="1419.49" y2="170.801" gradientUnits="userSpaceOnUse">
<stop stop-color="#A4FFFF"/>
<stop offset="1" stop-color="#A4FFFF" stop-opacity="0"/>
</linearGradient>
<linearGradient id="paint50_linear" x1="1419.49" y1="269.248" x2="1419.49" y2="27.8277" gradientUnits="userSpaceOnUse">
<stop stop-color="#A4FFFF"/>
<stop offset="1" stop-color="#A4FFFF" stop-opacity="0"/>
</linearGradient>
<linearGradient id="paint51_linear" x1="1172.66" y1="495.448" x2="1172.66" y2="364.209" gradientUnits="userSpaceOnUse">
<stop stop-color="#A4FFFF"/>
<stop offset="1" stop-color="#A4FFFF" stop-opacity="0"/>
</linearGradient>
<linearGradient id="paint52_linear" x1="1172.66" y1="462.607" x2="1172.66" y2="221.19" gradientUnits="userSpaceOnUse">
<stop stop-color="#A4FFFF"/>
<stop offset="1" stop-color="#A4FFFF" stop-opacity="0"/>
</linearGradient>
<linearGradient id="paint53_linear" x1="1430.47" y1="367.458" x2="1430.47" y2="236.259" gradientUnits="userSpaceOnUse">
<stop stop-color="#A4FFFF"/>
<stop offset="1" stop-color="#A4FFFF" stop-opacity="0"/>
</linearGradient>
<linearGradient id="paint54_linear" x1="1430.47" y1="334.605" x2="1430.47" y2="93.1863" gradientUnits="userSpaceOnUse">
<stop stop-color="#A4FFFF"/>
<stop offset="1" stop-color="#A4FFFF" stop-opacity="0"/>
</linearGradient>
<linearGradient id="paint55_linear" x1="1119.93" y1="409.107" x2="1119.93" y2="277.868" gradientUnits="userSpaceOnUse">
<stop stop-color="#A4FFFF"/>
<stop offset="1" stop-color="#A4FFFF" stop-opacity="0"/>
</linearGradient>
<linearGradient id="paint56_linear" x1="1119.93" y1="408.411" x2="1119.93" y2="274.842" gradientUnits="userSpaceOnUse">
<stop stop-color="#A4FFFF"/>
<stop offset="1" stop-color="#A4FFFF" stop-opacity="0"/>
</linearGradient>
<linearGradient id="paint57_linear" x1="1189.39" y1="214.289" x2="1189.39" y2="83.0506" gradientUnits="userSpaceOnUse">
<stop stop-color="#A4FFFF"/>
<stop offset="1" stop-color="#A4FFFF" stop-opacity="0"/>
</linearGradient>
<linearGradient id="paint58_linear" x1="1189.39" y1="224.576" x2="1189.39" y2="127.845" gradientUnits="userSpaceOnUse">
<stop stop-color="#A4FFFF"/>
<stop offset="1" stop-color="#A4FFFF" stop-opacity="0"/>
</linearGradient>
<linearGradient id="paint59_linear" x1="1409.02" y1="442.782" x2="1409.02" y2="311.583" gradientUnits="userSpaceOnUse">
<stop stop-color="#A4FFFF"/>
<stop offset="1" stop-color="#A4FFFF" stop-opacity="0"/>
</linearGradient>
<linearGradient id="paint60_linear" x1="1409.02" y1="442.074" x2="1409.02" y2="308.502" gradientUnits="userSpaceOnUse">
<stop stop-color="#A4FFFF"/>
<stop offset="1" stop-color="#A4FFFF" stop-opacity="0"/>
</linearGradient>
</defs>
</svg>
