<svg width="2041" height="590" viewBox="0 0 2041 590" fill="none" xmlns="http://www.w3.org/2000/svg">
<g opacity="0.3" clip-path="url(#clip0)">
<path d="M203.057 800.103C276.671 800.103 336.347 740.427 336.347 666.813C336.347 593.199 276.671 533.523 203.057 533.523C129.443 533.523 69.7666 593.199 69.7666 666.813C69.7666 740.427 129.443 800.103 203.057 800.103Z" fill="url(#paint0_radial)"/>
<path d="M2040.98 28.9762C2040.98 20.3814 2034.01 13.3823 2025.41 13.3823C2016.82 13.3823 2009.82 20.3534 2009.82 28.9762C2009.82 37.5711 2016.79 44.5701 2025.41 44.5701C2034.01 44.5421 2040.98 37.5711 2040.98 28.9762Z" fill="url(#paint1_radial)"/>
<path d="M352.696 95.9151C356.562 95.9151 359.695 92.7815 359.695 88.916C359.695 85.0506 356.562 81.917 352.696 81.917C348.831 81.917 345.697 85.0506 345.697 88.916C345.697 92.7815 348.831 95.9151 352.696 95.9151Z" fill="url(#paint2_radial)"/>
<path d="M1812.22 111.732C1816.09 111.732 1819.22 108.599 1819.22 104.733C1819.22 100.868 1816.09 97.7344 1812.22 97.7344C1808.36 97.7344 1805.22 100.868 1805.22 104.733C1805.22 108.599 1808.36 111.732 1812.22 111.732Z" fill="url(#paint3_radial)"/>
<path d="M1425.48 450.543C1425.48 441.948 1418.51 434.949 1409.89 434.949C1401.29 434.949 1394.3 441.92 1394.3 450.543C1394.3 459.138 1401.27 466.137 1409.89 466.137C1418.48 466.109 1425.48 459.138 1425.48 450.543Z" fill="url(#paint4_radial)"/>
<path opacity="0.2" d="M709.06 341.386C709.06 332.792 702.089 325.792 693.466 325.792C684.871 325.792 677.872 332.764 677.872 341.386C677.872 349.981 684.843 356.98 693.466 356.98C702.089 356.952 709.06 349.981 709.06 341.386Z" fill="url(#paint5_radial)"/>
<path opacity="0.2" d="M124.527 341.386C124.527 332.792 117.556 325.792 108.933 325.792C100.338 325.792 93.3394 332.764 93.3394 341.386C93.3394 349.981 100.31 356.98 108.933 356.98C117.528 356.952 124.527 349.981 124.527 341.386Z" fill="url(#paint6_radial)"/>
<path opacity="0.2" d="M259.385 494.805C259.385 486.21 252.414 479.211 243.791 479.211C235.196 479.211 228.197 486.182 228.197 494.805C228.197 503.4 235.168 510.399 243.791 510.399C252.414 510.371 259.385 503.4 259.385 494.805Z" fill="url(#paint7_radial)"/>
<path opacity="0.2" d="M1996.3 400.01C1996.3 391.415 1989.33 384.416 1980.7 384.416C1972.08 384.416 1965.14 391.387 1965.14 400.01C1965.14 408.605 1972.11 415.604 1980.7 415.604C1989.3 415.604 1996.3 408.633 1996.3 400.01Z" fill="url(#paint8_radial)"/>
<path d="M1871.74 429.042C1871.74 420.447 1864.77 413.448 1856.15 413.448C1847.55 413.448 1840.58 420.419 1840.58 429.042C1840.58 437.637 1847.55 444.636 1856.15 444.636C1864.77 444.608 1871.74 437.637 1871.74 429.042Z" fill="url(#paint9_radial)"/>
<path d="M1663.12 163.61C1666.98 163.61 1670.11 160.476 1670.11 156.611C1670.11 152.745 1666.98 149.612 1663.12 149.612C1659.25 149.612 1656.12 152.745 1656.12 156.611C1656.12 160.476 1659.25 163.61 1663.12 163.61Z" fill="url(#paint10_radial)"/>
<path d="M468.237 436.041C472.102 436.041 475.236 432.907 475.236 429.042C475.236 425.177 472.102 422.043 468.237 422.043C464.371 422.043 461.238 425.177 461.238 429.042C461.238 432.907 464.371 436.041 468.237 436.041Z" fill="url(#paint11_radial)"/>
<path d="M1259.77 547.242C1259.77 543.379 1256.64 540.243 1252.77 540.243C1248.91 540.243 1245.78 543.379 1245.78 547.242C1245.78 551.106 1248.91 554.241 1252.77 554.241C1256.67 554.241 1259.77 551.106 1259.77 547.242Z" fill="url(#paint12_radial)"/>
<path d="M115.932 185.139C119.798 185.139 122.931 182.005 122.931 178.14C122.931 174.274 119.798 171.141 115.932 171.141C112.067 171.141 108.933 174.274 108.933 178.14C108.933 182.005 112.067 185.139 115.932 185.139Z" fill="url(#paint13_radial)"/>
<path d="M1566 537.164C1569.86 537.164 1573 534.03 1573 530.165C1573 526.299 1569.86 523.166 1566 523.166C1562.13 523.166 1559 526.299 1559 530.165C1559 534.03 1562.13 537.164 1566 537.164Z" fill="url(#paint14_radial)"/>
<path d="M704.049 434.865C707.914 434.865 711.048 431.732 711.048 427.866C711.048 424.001 707.914 420.867 704.049 420.867C700.183 420.867 697.05 424.001 697.05 427.866C697.05 431.732 700.183 434.865 704.049 434.865Z" fill="url(#paint15_radial)"/>
<path d="M653.516 503.792C657.381 503.792 660.515 500.658 660.515 496.793C660.515 492.927 657.381 489.793 653.516 489.793C649.65 489.793 646.517 492.927 646.517 496.793C646.517 500.658 649.65 503.792 653.516 503.792Z" fill="url(#paint16_radial)"/>
<path opacity="0.2" d="M840.502 15.5939C840.502 6.99905 833.531 0 824.908 0C816.314 0 809.315 6.97106 809.315 15.5939C809.315 24.1887 816.286 31.1878 824.908 31.1878C833.531 31.1598 840.502 24.1887 840.502 15.5939Z" fill="url(#paint17_radial)"/>
<path d="M1191.57 38.1588C1195.44 38.1588 1198.57 35.0252 1198.57 31.1597C1198.57 27.2942 1195.44 24.1606 1191.57 24.1606C1187.71 24.1606 1184.58 27.2942 1184.58 31.1597C1184.58 35.0252 1187.71 38.1588 1191.57 38.1588Z" fill="url(#paint18_radial)"/>
<path d="M1055.68 97.7344C1059.55 97.7344 1062.68 94.6009 1062.68 90.7354C1062.68 86.8699 1059.55 83.7363 1055.68 83.7363C1051.82 83.7363 1048.68 86.8699 1048.68 90.7354C1048.68 94.6009 1051.82 97.7344 1055.68 97.7344Z" fill="url(#paint19_radial)"/>
<path d="M835.491 109.073C839.356 109.073 842.49 105.94 842.49 102.074C842.49 98.2088 839.356 95.0752 835.491 95.0752C831.626 95.0752 828.492 98.2088 828.492 102.074C828.492 105.94 831.626 109.073 835.491 109.073Z" fill="url(#paint20_radial)"/>
<path d="M467.285 524.09C471.15 524.09 474.284 520.956 474.284 517.091C474.284 513.225 471.15 510.092 467.285 510.092C463.419 510.092 460.286 513.225 460.286 517.091C460.286 520.956 463.419 524.09 467.285 524.09Z" fill="url(#paint21_radial)"/>
</g>
<defs>
<radialGradient id="paint0_radial" cx="0" cy="0" r="1" gradientUnits="userSpaceOnUse" gradientTransform="translate(203.057 666.812) scale(133.277)">
<stop offset="0.5642" stop-color="#DE0000"/>
<stop offset="0.6313" stop-color="#DA0000"/>
<stop offset="0.6907" stop-color="#D00000"/>
<stop offset="0.7473" stop-color="#BE0000"/>
<stop offset="0.8021" stop-color="#A40000"/>
<stop offset="0.8556" stop-color="#830000"/>
<stop offset="0.9082" stop-color="#5B0000"/>
<stop offset="0.959" stop-color="#2C0000"/>
<stop offset="1"/>
</radialGradient>
<radialGradient id="paint1_radial" cx="0" cy="0" r="1" gradientUnits="userSpaceOnUse" gradientTransform="translate(2025.4 28.9737) scale(15.581)">
<stop offset="0.5642" stop-color="#F50000"/>
<stop offset="0.6284" stop-color="#F10000"/>
<stop offset="0.6852" stop-color="#E70000"/>
<stop offset="0.7393" stop-color="#D50000"/>
<stop offset="0.7917" stop-color="#BB0000"/>
<stop offset="0.8429" stop-color="#9A0000"/>
<stop offset="0.8933" stop-color="#720000"/>
<stop offset="0.9428" stop-color="#420000"/>
<stop offset="0.9906" stop-color="#0C0000"/>
<stop offset="1"/>
</radialGradient>
<radialGradient id="paint2_radial" cx="0" cy="0" r="1" gradientUnits="userSpaceOnUse" gradientTransform="translate(352.707 88.9113) scale(6.99904)">
<stop offset="0.5642" stop-color="#F50000"/>
<stop offset="0.6284" stop-color="#F10000"/>
<stop offset="0.6852" stop-color="#E70000"/>
<stop offset="0.7393" stop-color="#D50000"/>
<stop offset="0.7917" stop-color="#BB0000"/>
<stop offset="0.8429" stop-color="#9A0000"/>
<stop offset="0.8933" stop-color="#720000"/>
<stop offset="0.9428" stop-color="#420000"/>
<stop offset="0.9906" stop-color="#0C0000"/>
<stop offset="1"/>
</radialGradient>
<radialGradient id="paint3_radial" cx="0" cy="0" r="1" gradientUnits="userSpaceOnUse" gradientTransform="translate(1812.23 104.745) scale(6.99905)">
<stop offset="0.5642" stop-color="#F50000"/>
<stop offset="0.6284" stop-color="#F10000"/>
<stop offset="0.6852" stop-color="#E70000"/>
<stop offset="0.7393" stop-color="#D50000"/>
<stop offset="0.7917" stop-color="#BB0000"/>
<stop offset="0.8429" stop-color="#9A0000"/>
<stop offset="0.8933" stop-color="#720000"/>
<stop offset="0.9428" stop-color="#420000"/>
<stop offset="0.9906" stop-color="#0C0000"/>
<stop offset="1"/>
</radialGradient>
<radialGradient id="paint4_radial" cx="0" cy="0" r="1" gradientUnits="userSpaceOnUse" gradientTransform="translate(1409.89 450.535) scale(15.581)">
<stop offset="0.5642" stop-color="#6E008B"/>
<stop offset="0.6471" stop-color="#6B0087"/>
<stop offset="0.7204" stop-color="#63007D"/>
<stop offset="0.7902" stop-color="#54006B"/>
<stop offset="0.8578" stop-color="#400051"/>
<stop offset="0.9239" stop-color="#260030"/>
<stop offset="0.9879" stop-color="#070008"/>
<stop offset="1"/>
</radialGradient>
<radialGradient id="paint5_radial" cx="0" cy="0" r="1" gradientUnits="userSpaceOnUse" gradientTransform="translate(693.489 341.374) scale(15.581)">
<stop offset="0.5642" stop-color="#EA8100"/>
<stop offset="0.6297" stop-color="#E67F00"/>
<stop offset="0.6877" stop-color="#DC7900"/>
<stop offset="0.743" stop-color="#CA6F00"/>
<stop offset="0.7965" stop-color="#B06100"/>
<stop offset="0.8487" stop-color="#8F4F00"/>
<stop offset="0.9001" stop-color="#673900"/>
<stop offset="0.95" stop-color="#371F00"/>
<stop offset="0.9989" stop-color="#010100"/>
<stop offset="1"/>
</radialGradient>
<radialGradient id="paint6_radial" cx="0" cy="0" r="1" gradientUnits="userSpaceOnUse" gradientTransform="translate(108.937 341.374) scale(15.5807)">
<stop offset="0.5642" stop-color="#EA8100"/>
<stop offset="0.6297" stop-color="#E67F00"/>
<stop offset="0.6877" stop-color="#DC7900"/>
<stop offset="0.743" stop-color="#CA6F00"/>
<stop offset="0.7965" stop-color="#B06100"/>
<stop offset="0.8487" stop-color="#8F4F00"/>
<stop offset="0.9001" stop-color="#673900"/>
<stop offset="0.95" stop-color="#371F00"/>
<stop offset="0.9989" stop-color="#010100"/>
<stop offset="1"/>
</radialGradient>
<radialGradient id="paint7_radial" cx="0" cy="0" r="1" gradientUnits="userSpaceOnUse" gradientTransform="translate(243.802 494.794) scale(15.581)">
<stop offset="0.5642" stop-color="#EA8100"/>
<stop offset="0.6297" stop-color="#E67F00"/>
<stop offset="0.6877" stop-color="#DC7900"/>
<stop offset="0.743" stop-color="#CA6F00"/>
<stop offset="0.7965" stop-color="#B06100"/>
<stop offset="0.8487" stop-color="#8F4F00"/>
<stop offset="0.9001" stop-color="#673900"/>
<stop offset="0.95" stop-color="#371F00"/>
<stop offset="0.9989" stop-color="#010100"/>
<stop offset="1"/>
</radialGradient>
<radialGradient id="paint8_radial" cx="0" cy="0" r="1" gradientUnits="userSpaceOnUse" gradientTransform="translate(1980.71 400.016) scale(15.5807)">
<stop offset="0.5642" stop-color="#EA8100"/>
<stop offset="0.6297" stop-color="#E67F00"/>
<stop offset="0.6877" stop-color="#DC7900"/>
<stop offset="0.743" stop-color="#CA6F00"/>
<stop offset="0.7965" stop-color="#B06100"/>
<stop offset="0.8487" stop-color="#8F4F00"/>
<stop offset="0.9001" stop-color="#673900"/>
<stop offset="0.95" stop-color="#371F00"/>
<stop offset="0.9989" stop-color="#010100"/>
<stop offset="1"/>
</radialGradient>
<radialGradient id="paint9_radial" cx="0" cy="0" r="1" gradientUnits="userSpaceOnUse" gradientTransform="translate(1856.17 429.031) scale(15.581)">
<stop offset="0.5642" stop-color="#F50000"/>
<stop offset="0.6284" stop-color="#F10000"/>
<stop offset="0.6852" stop-color="#E70000"/>
<stop offset="0.7393" stop-color="#D50000"/>
<stop offset="0.7917" stop-color="#BB0000"/>
<stop offset="0.8429" stop-color="#9A0000"/>
<stop offset="0.8933" stop-color="#720000"/>
<stop offset="0.9428" stop-color="#420000"/>
<stop offset="0.9906" stop-color="#0C0000"/>
<stop offset="1"/>
</radialGradient>
<radialGradient id="paint10_radial" cx="0" cy="0" r="1" gradientUnits="userSpaceOnUse" gradientTransform="translate(1663.11 156.616) scale(6.99905)">
<stop offset="0.5642" stop-color="#7000B2"/>
<stop offset="0.6383" stop-color="#6E00AE"/>
<stop offset="0.704" stop-color="#6700A4"/>
<stop offset="0.7664" stop-color="#5C0092"/>
<stop offset="0.8269" stop-color="#4C0078"/>
<stop offset="0.886" stop-color="#370057"/>
<stop offset="0.9432" stop-color="#1E002F"/>
<stop offset="0.9994" stop-color="#000001"/>
<stop offset="1"/>
</radialGradient>
<radialGradient id="paint11_radial" cx="0" cy="0" r="1" gradientUnits="userSpaceOnUse" gradientTransform="translate(468.25 429.031) scale(6.99905)">
<stop offset="0.5642" stop-color="#7000B2"/>
<stop offset="0.6383" stop-color="#6E00AE"/>
<stop offset="0.704" stop-color="#6700A4"/>
<stop offset="0.7664" stop-color="#5C0092"/>
<stop offset="0.8269" stop-color="#4C0078"/>
<stop offset="0.886" stop-color="#370057"/>
<stop offset="0.9432" stop-color="#1E002F"/>
<stop offset="0.9994" stop-color="#000001"/>
<stop offset="1"/>
</radialGradient>
<radialGradient id="paint12_radial" cx="0" cy="0" r="1" gradientUnits="userSpaceOnUse" gradientTransform="translate(1252.79 547.254) scale(6.99933)">
<stop offset="0.5642" stop-color="#7000B2"/>
<stop offset="0.6383" stop-color="#6E00AE"/>
<stop offset="0.704" stop-color="#6700A4"/>
<stop offset="0.7664" stop-color="#5C0092"/>
<stop offset="0.8269" stop-color="#4C0078"/>
<stop offset="0.886" stop-color="#370057"/>
<stop offset="0.9432" stop-color="#1E002F"/>
<stop offset="0.9994" stop-color="#000001"/>
<stop offset="1"/>
</radialGradient>
<radialGradient id="paint13_radial" cx="0" cy="0" r="1" gradientUnits="userSpaceOnUse" gradientTransform="translate(115.936 178.134) scale(6.99905)">
<stop offset="0.5642" stop-color="#7000B2"/>
<stop offset="0.6383" stop-color="#6E00AE"/>
<stop offset="0.704" stop-color="#6700A4"/>
<stop offset="0.7664" stop-color="#5C0092"/>
<stop offset="0.8269" stop-color="#4C0078"/>
<stop offset="0.886" stop-color="#370057"/>
<stop offset="0.9432" stop-color="#1E002F"/>
<stop offset="0.9994" stop-color="#000001"/>
<stop offset="1"/>
</radialGradient>
<radialGradient id="paint14_radial" cx="0" cy="0" r="1" gradientUnits="userSpaceOnUse" gradientTransform="translate(1566 530.157) scale(6.99905)">
<stop offset="0.5642" stop-color="#F50000"/>
<stop offset="0.6284" stop-color="#F10000"/>
<stop offset="0.6852" stop-color="#E70000"/>
<stop offset="0.7393" stop-color="#D50000"/>
<stop offset="0.7917" stop-color="#BB0000"/>
<stop offset="0.8429" stop-color="#9A0000"/>
<stop offset="0.8933" stop-color="#720000"/>
<stop offset="0.9428" stop-color="#420000"/>
<stop offset="0.9906" stop-color="#0C0000"/>
<stop offset="1"/>
</radialGradient>
<radialGradient id="paint15_radial" cx="0" cy="0" r="1" gradientUnits="userSpaceOnUse" gradientTransform="translate(704.05 427.853) scale(6.99905)">
<stop offset="0.5642" stop-color="#F50000"/>
<stop offset="0.6284" stop-color="#F10000"/>
<stop offset="0.6852" stop-color="#E70000"/>
<stop offset="0.7393" stop-color="#D50000"/>
<stop offset="0.7917" stop-color="#BB0000"/>
<stop offset="0.8429" stop-color="#9A0000"/>
<stop offset="0.8933" stop-color="#720000"/>
<stop offset="0.9428" stop-color="#420000"/>
<stop offset="0.9906" stop-color="#0C0000"/>
<stop offset="1"/>
</radialGradient>
<radialGradient id="paint16_radial" cx="0" cy="0" r="1" gradientUnits="userSpaceOnUse" gradientTransform="translate(653.515 496.788) scale(6.99905)">
<stop offset="0.5642" stop-color="#F50000"/>
<stop offset="0.6284" stop-color="#F10000"/>
<stop offset="0.6852" stop-color="#E70000"/>
<stop offset="0.7393" stop-color="#D50000"/>
<stop offset="0.7917" stop-color="#BB0000"/>
<stop offset="0.8429" stop-color="#9A0000"/>
<stop offset="0.8933" stop-color="#720000"/>
<stop offset="0.9428" stop-color="#420000"/>
<stop offset="0.9906" stop-color="#0C0000"/>
<stop offset="1"/>
</radialGradient>
<radialGradient id="paint17_radial" cx="0" cy="0" r="1" gradientUnits="userSpaceOnUse" gradientTransform="translate(824.919 15.5813) scale(15.5813)">
<stop offset="0.5642" stop-color="#EA8100"/>
<stop offset="0.6297" stop-color="#E67F00"/>
<stop offset="0.6877" stop-color="#DC7900"/>
<stop offset="0.743" stop-color="#CA6F00"/>
<stop offset="0.7965" stop-color="#B06100"/>
<stop offset="0.8487" stop-color="#8F4F00"/>
<stop offset="0.9001" stop-color="#673900"/>
<stop offset="0.95" stop-color="#371F00"/>
<stop offset="0.9989" stop-color="#010100"/>
<stop offset="1"/>
</radialGradient>
<radialGradient id="paint18_radial" cx="0" cy="0" r="1" gradientUnits="userSpaceOnUse" gradientTransform="translate(1191.57 31.1622) scale(6.99905)">
<stop offset="0.5642" stop-color="#7000B2"/>
<stop offset="0.6383" stop-color="#6E00AE"/>
<stop offset="0.704" stop-color="#6700A4"/>
<stop offset="0.7664" stop-color="#5C0092"/>
<stop offset="0.8269" stop-color="#4C0078"/>
<stop offset="0.886" stop-color="#370057"/>
<stop offset="0.9432" stop-color="#1E002F"/>
<stop offset="0.9994" stop-color="#000001"/>
<stop offset="1"/>
</radialGradient>
<radialGradient id="paint19_radial" cx="0" cy="0" r="1" gradientUnits="userSpaceOnUse" gradientTransform="translate(1055.68 90.7469) scale(6.99905)">
<stop offset="0.5642" stop-color="#7000B2"/>
<stop offset="0.6383" stop-color="#6E00AE"/>
<stop offset="0.704" stop-color="#6700A4"/>
<stop offset="0.7664" stop-color="#5C0092"/>
<stop offset="0.8269" stop-color="#4C0078"/>
<stop offset="0.886" stop-color="#370057"/>
<stop offset="0.9432" stop-color="#1E002F"/>
<stop offset="0.9994" stop-color="#000001"/>
<stop offset="1"/>
</radialGradient>
<radialGradient id="paint20_radial" cx="0" cy="0" r="1" gradientUnits="userSpaceOnUse" gradientTransform="translate(835.481 102.062) scale(6.99905)">
<stop offset="0.5642" stop-color="#F50000"/>
<stop offset="0.6284" stop-color="#F10000"/>
<stop offset="0.6852" stop-color="#E70000"/>
<stop offset="0.7393" stop-color="#D50000"/>
<stop offset="0.7917" stop-color="#BB0000"/>
<stop offset="0.8429" stop-color="#9A0000"/>
<stop offset="0.8933" stop-color="#720000"/>
<stop offset="0.9428" stop-color="#420000"/>
<stop offset="0.9906" stop-color="#0C0000"/>
<stop offset="1"/>
</radialGradient>
<radialGradient id="paint21_radial" cx="0" cy="0" r="1" gradientUnits="userSpaceOnUse" gradientTransform="translate(467.279 517.078) scale(6.99905)">
<stop offset="0.5642" stop-color="#7000B2"/>
<stop offset="0.6383" stop-color="#6E00AE"/>
<stop offset="0.704" stop-color="#6700A4"/>
<stop offset="0.7664" stop-color="#5C0092"/>
<stop offset="0.8269" stop-color="#4C0078"/>
<stop offset="0.886" stop-color="#370057"/>
<stop offset="0.9432" stop-color="#1E002F"/>
<stop offset="0.9994" stop-color="#000001"/>
<stop offset="1"/>
</radialGradient>
<clipPath id="clip0">
<rect width="2040.98" height="1111.9" fill="white"/>
</clipPath>
</defs>
</svg>
